<?xml version="1.0" encoding="utf-8"?>
<!-- Generator: Adobe Illustrator 25.4.1, SVG Export Plug-In . SVG Version: 6.00 Build 0)  -->
<svg version="1.1" id="Layer_1" xmlns="http://www.w3.org/2000/svg" xmlns:xlink="http://www.w3.org/1999/xlink" x="0px" y="0px"
	 viewBox="0 0 100 100" style="enable-background:new 0 0 100 100;" xml:space="preserve">
<path d="M50,5C25.2,5,5,25.2,5,50s20.2,45,45,45s45-20.2,45-45S74.8,5,50,5z M50,88.1c-17,0-31.4-11.2-36.3-26.5
	c0.4,0.3,0.8,0.5,1.2,0.8l2.6-4.5c-2.6-1.5-4.4-3.1-5.5-4.7c-0.1-1-0.2-2.1-0.2-3.1c0-1.1,0.1-2.1,0.2-3.1c1.1-1.7,3.1-3.4,5.9-4.9
	l-2.5-4.5c-0.6,0.3-1.1,0.7-1.7,1C18.6,23.1,33,11.9,50,11.9s31.4,11.2,36.3,26.5c-0.4-0.3-0.8-0.5-1.2-0.8l-2.6,4.5
	c2.6,1.5,4.4,3.1,5.5,4.7c0.1,1,0.2,2.1,0.2,3.1c0,1.1-0.1,2.1-0.2,3.1c-1.1,1.7-3.1,3.4-5.9,4.9l2.5,4.5c0.6-0.3,1.1-0.7,1.7-1
	C81.4,76.9,67,88.1,50,88.1z"/>
<path d="M43.2,30.3l0.3,5.2c4.4-0.3,9-0.3,13.5,0l0.4-5.2C52.7,30,47.7,30,43.2,30.3z"/>
<path d="M22.1,34.4l1.7,4.9c3.8-1.4,8.2-2.4,12.9-3.1L36,31.1C31,31.8,26.3,32.9,22.1,34.4z"/>
<path d="M63.7,36.3c4.8,0.7,9.1,1.8,12.9,3.2l1.8-4.9c-4.1-1.5-8.8-2.7-13.9-3.4L63.7,36.3z"/>
<path d="M21.6,65.4c4.1,1.5,8.8,2.7,13.9,3.4l0.8-5.1c-4.8-0.7-9.1-1.8-12.9-3.2L21.6,65.4z"/>
<path d="M43,64.5l-0.4,5.2C45,69.9,47.5,70,50,70c2.3,0,4.6-0.1,6.8-0.2l-0.3-5.2C52.1,64.8,47.5,64.8,43,64.5z"/>
<path d="M63.2,63.8l0.7,5.1c5.1-0.7,9.8-1.9,14-3.3l-1.7-4.9C72.3,62.1,68,63.1,63.2,63.8z"/>
</svg>
