<?xml version="1.0" encoding="utf-8"?>
<!-- Generator: Adobe Illustrator 25.4.1, SVG Export Plug-In . SVG Version: 6.00 Build 0)  -->
<svg version="1.1" id="Layer_1" xmlns="http://www.w3.org/2000/svg" xmlns:xlink="http://www.w3.org/1999/xlink" x="0px" y="0px"
	 viewBox="0 0 18.1 18.1" style="enable-background:new 0 0 18.1 18.1;" xml:space="preserve">
<style type="text/css">
	.st0{fill:none;}
</style>
<g>
	<g>
		<path class="st0" d="M0.9,1c5.4,0,10.8,0,16.3,0c0,5.4,0,10.8,0,16.3c-5.4,0-10.8,0-16.3,0C0.9,11.8,0.9,6.4,0.9,1z"/>
		<path d="M9.1,1c2.1,0,4.1,0.2,5.5,0.6c1.6,0.4,2.6,1.1,2.6,1.9c0,0.1,0,0.1,0,0.2l-1.5,11c-0.2,0.9-1,1.5-2.1,1.9
			c-1.4,0.5-3.2,0.6-4.5,0.6S6,17.1,4.6,16.6c-1.1-0.4-1.9-1-2.1-1.9L1,3.7c0-0.1,0-0.2,0-0.2C1,2.7,2,2,3.6,1.6C5,1.2,6.9,1,9.1,1z
			 M16,4.9c-0.4,0.2-0.9,0.4-1.4,0.5C13.2,5.8,11.2,6,9.1,6C6.9,6,5,5.8,3.5,5.4C3,5.3,2.5,5.1,2.2,4.9l1.3,9.7
			c0.1,0.5,0.7,0.8,1.5,1.1c1.3,0.4,3,0.5,4.1,0.5s2.9-0.1,4.1-0.5c0.8-0.3,1.3-0.6,1.5-1.1C14.7,14.6,16,4.9,16,4.9z M2,3.5L2,3.5
			c0.1,0.4,0.8,0.7,1.9,1c1.3,0.4,3.2,0.6,5.3,0.6s3.9-0.2,5.3-0.6c1-0.3,1.7-0.6,1.8-0.9V3.5c0-0.3-0.7-0.6-1.9-0.9
			C13.1,2.2,11.2,2,9.1,2S5.2,2.2,3.8,2.6C2.7,2.9,2,3.2,2,3.5z"/>
	</g>
</g>
</svg>
