<?xml version="1.0" encoding="utf-8"?>
<!-- Generator: Adobe Illustrator 25.4.1, SVG Export Plug-In . SVG Version: 6.00 Build 0)  -->
<svg version="1.1" id="Layer_1" xmlns="http://www.w3.org/2000/svg" xmlns:xlink="http://www.w3.org/1999/xlink" x="0px" y="0px"
	 viewBox="0 0 105.6 105.6" style="enable-background:new 0 0 105.6 105.6;" xml:space="preserve">
<g id="Layer_2_00000035518319011778676870000003340740244082891433_">
</g>
<g id="Layer_1_00000101792406799473332810000004195247016257535397_">
	<path d="M98.3,23.7H63c-0.4,0-0.7,0.1-1.1,0.3L6.3,58.2c-0.6,0.4-1,1-1,1.7v10.7c0,1.1,0.9,2,2,2h49.4c0.5,0,0.9-0.2,1.3-0.5
		l41.5-34.2c0.5-0.4,0.7-1,0.7-1.6V25.8C100.3,24.6,99.4,23.7,98.3,23.7z M63.5,27.8h29.1L55.8,57.9H14.5L63.5,27.8z M9.4,62h45.1
		v6.6H9.4V62z M58.5,66.5v-5.7l37.7-30.9v5.5L58.5,66.5z"/>
</g>
</svg>
